<?xml version="1.0" standalone="no"?><!DOCTYPE svg PUBLIC "-//W3C//DTD SVG 1.1//EN" "http://www.w3.org/Graphics/SVG/1.1/DTD/svg11.dtd"><svg t="1779081836138" class="icon" viewBox="0 0 1024 1024" version="1.1" xmlns="http://www.w3.org/2000/svg" p-id="19313" xmlns:xlink="http://www.w3.org/1999/xlink" width="200" height="200"><path d="M917.976 111.42v801.16c0 61.54-49.88 111.42-111.42 111.42h-592.24c-18.44 0-33.42-14.96-33.42-33.42V33.42c0-18.46 14.98-33.42 33.42-33.42h592.24c61.54 0 111.42 49.88 111.42 111.42z" fill="#7CBAF7" p-id="19314"></path><path d="M917.976 111.42v801.16c0 61.54-49.88 111.42-111.42 111.42h-592.24c-18.44 0-33.42-14.96-33.42-33.42v-81.3c31.7 5.62 64.32 8.56 97.62 8.56 306.68 0 555.3-248.62 555.3-555.3 0-138.54-50.74-265.26-134.66-362.54h107.4c61.54 0 111.42 49.88 111.42 111.42zM278.516 139.8c0 11.76-4.76 22.44-12.48 30.14a42.52 42.52 0 0 1-30.16 12.5h-54.98V97.16h54.98c23.56 0 42.64 19.1 42.64 42.64zM278.516 298.46c0 11.78-4.76 22.42-12.48 30.14s-18.38 12.5-30.16 12.5h-54.98v-85.28h54.98c23.56 0 42.64 19.1 42.64 42.64zM278.516 457.12c0 11.76-4.76 22.44-12.48 30.14a42.52 42.52 0 0 1-30.16 12.5h-54.98v-85.28h54.98c23.56 0 42.64 19.1 42.64 42.64zM278.516 615.78c0 11.78-4.76 22.42-12.48 30.14s-18.38 12.5-30.16 12.5h-54.98v-85.28h54.98c23.56 0 42.64 19.1 42.64 42.64z" fill="#48ACFF" p-id="19315"></path><path d="M278.516 774.44c0 11.76-4.76 22.44-12.48 30.14a42.52 42.52 0 0 1-30.16 12.5h-54.98V731.8h54.98c23.56 0 42.64 19.1 42.64 42.64zM278.516 933.1c0 11.78-4.76 22.42-12.48 30.14s-18.38 12.5-30.16 12.5h-54.98v-85.28h54.98c23.56 0 42.64 19.1 42.64 42.64z" fill="#48ACFF" p-id="19316"></path><path d="M235.884 145.738H148.658c-23.546 0-42.634-19.088-42.634-42.634s19.088-42.634 42.634-42.634h87.226c23.546 0 42.634 19.088 42.634 42.634s-19.088 42.634-42.634 42.634z" fill="#FFC751" p-id="19317"></path><path d="M191.402 60.47h-16.684c-23.546 0-42.634 19.088-42.634 42.634s19.088 42.634 42.634 42.634h16.684c23.546 0 42.634-19.088 42.634-42.634s-19.088-42.634-42.634-42.634z" fill="#FFE059" p-id="19318"></path><path d="M235.884 304.398H148.658c-23.546 0-42.634-19.088-42.634-42.634s19.088-42.634 42.634-42.634h87.226c23.546 0 42.634 19.088 42.634 42.634s-19.088 42.634-42.634 42.634z" fill="#FFC751" p-id="19319"></path><path d="M191.402 219.13h-16.684c-23.546 0-42.634 19.088-42.634 42.634s19.088 42.634 42.634 42.634h16.684c23.546 0 42.634-19.088 42.634-42.634s-19.088-42.634-42.634-42.634z" fill="#FFE059" p-id="19320"></path><path d="M235.884 463.06H148.658c-23.546 0-42.634-19.088-42.634-42.634s19.088-42.634 42.634-42.634h87.226c23.546 0 42.634 19.088 42.634 42.634s-19.088 42.634-42.634 42.634z" fill="#FFC751" p-id="19321"></path><path d="M191.402 377.79h-16.684c-23.546 0-42.634 19.088-42.634 42.634s19.088 42.634 42.634 42.634h16.684c23.546 0 42.634-19.088 42.634-42.634s-19.088-42.634-42.634-42.634z" fill="#FFE059" p-id="19322"></path><path d="M235.884 621.72H148.658c-23.546 0-42.634-19.088-42.634-42.634s19.088-42.634 42.634-42.634h87.226c23.546 0 42.634 19.088 42.634 42.634s-19.088 42.634-42.634 42.634z" fill="#FFC751" p-id="19323"></path><path d="M191.402 536.452h-16.684c-23.546 0-42.634 19.088-42.634 42.634s19.088 42.634 42.634 42.634h16.684c23.546 0 42.634-19.088 42.634-42.634s-19.088-42.634-42.634-42.634z" fill="#FFE059" p-id="19324"></path><path d="M235.884 780.38H148.658c-23.546 0-42.634-19.088-42.634-42.634s19.088-42.634 42.634-42.634h87.226c23.546 0 42.634 19.088 42.634 42.634s-19.088 42.634-42.634 42.634z" fill="#FFC751" p-id="19325"></path><path d="M191.402 695.112h-16.684c-23.546 0-42.634 19.088-42.634 42.634s19.088 42.634 42.634 42.634h16.684c23.546 0 42.634-19.088 42.634-42.634s-19.088-42.634-42.634-42.634z" fill="#FFE059" p-id="19326"></path><path d="M235.884 939.04H148.658c-23.546 0-42.634-19.088-42.634-42.634s19.088-42.634 42.634-42.634h87.226c23.546 0 42.634 19.088 42.634 42.634s-19.088 42.634-42.634 42.634z" fill="#FFC751" p-id="19327"></path><path d="M191.402 853.772h-16.684c-23.546 0-42.634 19.088-42.634 42.634s19.088 42.634 42.634 42.634h16.684c23.546 0 42.634-19.088 42.634-42.634s-19.088-42.634-42.634-42.634z" fill="#FFE059" p-id="19328"></path><path d="M623.172 96.61H350.076c-26.678 0-48.306-21.626-48.306-48.306C301.77 21.626 323.396 0 350.076 0h273.096c26.678 0 48.306 21.626 48.306 48.306-0.002 26.678-21.628 48.304-48.306 48.304z" fill="#A9CFFC" p-id="19329"></path><path d="M490.946 0h-69.618c-26.678 0-48.306 21.626-48.306 48.306 0 26.678 21.626 48.306 48.306 48.306h69.618c26.678 0 48.306-21.626 48.306-48.306C539.25 21.626 517.624 0 490.946 0z" fill="#CBE1FF" p-id="19330"></path><path d="M917.976 595.38v317.2c0 61.54-49.88 111.42-111.42 111.42h-305.88c214.82-41.56 382.76-213.06 417.3-428.62z" fill="#229BFF" p-id="19331"></path><path d="M743.024 431.876h-362.64c-16.568 0-30-13.432-30-30v-182.704c0-16.568 13.432-30 30-30h362.64c16.568 0 30 13.432 30 30v182.704c0 16.568-13.432 30-30 30z" fill="#FFE059" p-id="19332"></path><path d="M773.02 219.18v182.7c0 16.56-13.42 30-30 30H539.8c100.8-18.4 177.18-106.66 177.18-212.74 0-10.16-0.7-20.16-2.08-29.96h28.12c16.58 0 30 13.42 30 30z" fill="#FFC751" p-id="19333"></path><path d="M625.17 189.172H438.8c-25.574 0-46.306 20.732-46.306 46.306 0 25.574 20.732 46.306 46.306 46.306h186.37c25.574 0 46.306-20.732 46.306-46.306 0-25.574-20.732-46.306-46.306-46.306z" fill="#FFF370" p-id="19334"></path><path d="M548.898 189.172h-58.152c-25.574 0-46.306 20.732-46.306 46.306 0 25.574 20.732 46.306 46.306 46.306h58.152c25.574 0 46.306-20.732 46.306-46.306 0-25.574-20.732-46.306-46.306-46.306z" fill="#FFF7C7" p-id="19335"></path><path d="M373.892 768.674h161.912c12.984 0 23.508 10.526 23.508 23.508 0 12.984-10.526 23.508-23.508 23.508h-161.912c-12.984 0-23.508-10.526-23.508-23.508 0-12.984 10.526-23.508 23.508-23.508z" fill="#FFC751" p-id="19336"></path><path d="M407.158 815.69h71.942c12.984 0 23.508-10.526 23.508-23.508 0-12.984-10.526-23.508-23.508-23.508h-71.942c-12.984 0-23.508 10.526-23.508 23.508s10.524 23.508 23.508 23.508z" fill="#FFE059" p-id="19337"></path><path d="M431.422 815.69h10.854c12.984 0 23.508-10.526 23.508-23.508 0-12.984-10.526-23.508-23.508-23.508h-10.854c-12.984 0-23.508 10.526-23.508 23.508s10.524 23.508 23.508 23.508z" fill="#FFF370" p-id="19338"></path><path d="M373.892 845.246h221.912c12.984 0 23.508 10.526 23.508 23.508 0 12.984-10.526 23.508-23.508 23.508H373.892c-12.984 0-23.508-10.526-23.508-23.508s10.526-23.508 23.508-23.508z" fill="#FFC751" p-id="19339"></path><path d="M407.158 892.264h119.942c12.984 0 23.508-10.526 23.508-23.508 0-12.984-10.524-23.508-23.508-23.508h-119.942c-12.984 0-23.508 10.524-23.508 23.508 0 12.982 10.524 23.508 23.508 23.508z" fill="#FFE059" p-id="19340"></path><path d="M443.45 892.264h22.854c12.984 0 23.508-10.526 23.508-23.508 0-12.984-10.526-23.508-23.508-23.508h-22.854c-12.984 0-23.508 10.526-23.508 23.508s10.526 23.508 23.508 23.508z" fill="#FFF370" p-id="19341"></path></svg>